<svg width="72" height="72" viewBox="0 0 72 72" fill="none" xmlns="http://www.w3.org/2000/svg">
<circle cx="36" cy="36" r="34.5" fill="black" stroke="#65B3AA" stroke-width="3"/>
<line x1="60.0607" y1="12.0607" x2="12.0607" y2="60.0607" stroke="#65B3AA" stroke-width="3"/>
<path d="M36 15C30.6957 15 25.6086 17.1071 21.8579 20.8579C18.1071 24.6086 16 29.6957 16 35V50.5556C16 53 18 55 20.4444 55H29.3333V37.2222H20.4444V35C20.4444 26.4 27.4 19.4444 36 19.4444C44.6 19.4444 51.5556 26.4 51.5556 35V37.2222H42.6667V55H51.5556C54 55 56 53 56 50.5556V35C56 29.6957 53.8929 24.6086 50.1421 20.8579C46.3914 17.1071 41.3043 15 36 15Z" fill="#65B3AA"/>
</svg>
