<svg width="30" height="30" viewBox="0 0 30 30" fill="none" xmlns="http://www.w3.org/2000/svg">
<circle cx="15" cy="15" r="14" fill="black" stroke="#65B3AA" stroke-width="2"/>
<path d="M15.0003 5.31104C12.7902 5.31104 10.6706 6.22839 9.10777 7.8613C7.54497 9.49421 6.66699 11.7089 6.66699 14.0182V20.7904C6.66699 21.8546 7.50033 22.7253 8.51884 22.7253H12.2225V14.9857H8.51884V14.0182C8.51884 10.2741 11.417 7.24596 15.0003 7.24596C18.5837 7.24596 21.4818 10.2741 21.4818 14.0182V14.9857H17.7781V22.7253H21.4818C22.5003 22.7253 23.3337 21.8546 23.3337 20.7904V14.0182C23.3337 11.7089 22.4557 9.49421 20.8929 7.8613C19.3301 6.22839 17.2105 5.31104 15.0003 5.31104Z" fill="#65B3AA"/>
</svg>
