<svg width="45" height="45" viewBox="0 0 45 45" fill="none" xmlns="http://www.w3.org/2000/svg">
<circle cx="22.5" cy="22.5" r="21.5" fill="black" stroke="#65B3AA" stroke-width="2"/>
<path d="M22.5 8.73022C19.1848 8.73022 16.0054 10.0472 13.6612 12.3914C11.317 14.7356 10 17.915 10 21.2302V30.9524C10 32.4802 11.25 33.7302 12.7778 33.7302H18.3333V22.6191H12.7778V21.2302C12.7778 15.8552 17.125 11.508 22.5 11.508C27.875 11.508 32.2222 15.8552 32.2222 21.2302V22.6191H26.6667V33.7302H32.2222C33.75 33.7302 35 32.4802 35 30.9524V21.2302C35 17.915 33.683 14.7356 31.3388 12.3914C28.9946 10.0472 25.8152 8.73022 22.5 8.73022Z" fill="#65B3AA"/>
</svg>
