<svg width="45" height="46" viewBox="0 0 45 46" fill="none" xmlns="http://www.w3.org/2000/svg">
<circle cx="22.5" cy="22.7698" r="21.5" fill="black" stroke="#65B3AA" stroke-width="2"/>
<path d="M22.5 9C19.1848 9 16.0054 10.317 13.6612 12.6612C11.317 15.0054 10 18.1848 10 21.5V31.2222C10 32.75 11.25 34 12.7778 34H18.3333V22.8889H12.7778V21.5C12.7778 16.125 17.125 11.7778 22.5 11.7778C27.875 11.7778 32.2222 16.125 32.2222 21.5V22.8889H26.6667V34H32.2222C33.75 34 35 32.75 35 31.2222V21.5C35 18.1848 33.683 15.0054 31.3388 12.6612C28.9946 10.317 25.8152 9 22.5 9Z" fill="#65B3AA"/>
<line x1="37.7071" y1="8.70711" x2="8.70711" y2="37.7071" stroke="#65B3AA" stroke-width="2"/>
</svg>
